<svg width="60" height="60" viewBox="0 0 60 60" fill="none" xmlns="http://www.w3.org/2000/svg">
<path d="M11.25 5.625C10.7322 5.625 10.3125 6.04474 10.3125 6.5625V42.3761C10.3125 42.711 10.4913 43.0207 10.7816 43.188L29.0018 53.6978C29.2853 53.8612 29.6337 53.865 29.9207 53.7079L49.2004 43.143C49.5008 42.9784 49.6875 42.6634 49.6875 42.321V6.5625C49.6875 6.04474 49.2679 5.625 48.75 5.625H11.25ZM4.6875 6.5625C4.6875 2.93813 7.62563 0 11.25 0H48.75C52.3744 0 55.3125 2.93814 55.3125 6.5625V42.321C55.3125 44.718 54.0056 46.9241 51.9037 48.0761L32.6238 58.6406C30.6144 59.7416 28.1761 59.715 26.1913 58.5701L7.97107 48.0608C5.93932 46.8889 4.6875 44.7217 4.6875 42.3761V6.5625ZM18.75 15.9375C18.75 14.3842 20.0092 13.125 21.5625 13.125H38.8703C40.4235 13.125 41.6828 14.3842 41.6828 15.9375C41.6828 17.4908 40.4235 18.75 38.8703 18.75H24.375V25.1683H38.8703C40.4235 25.1683 41.6828 26.4275 41.6828 27.9808V38.7982C41.6828 39.8633 41.0809 40.8371 40.128 41.3138L31.4741 45.6405C30.6823 46.0365 29.7504 46.0365 28.9585 45.6405L20.3047 41.3138C19.3519 40.8371 18.75 39.8633 18.75 38.7982V36.6346C18.75 35.0813 20.0092 33.8221 21.5625 33.8221C23.1158 33.8221 24.375 35.0813 24.375 36.6346V37.0599L30.2163 39.9806L36.0577 37.0599V30.7933H21.5625C20.0092 30.7933 18.75 29.5341 18.75 27.9808V15.9375Z" fill="black"/>
</svg>
