<svg width="60" height="60" viewBox="0 0 60 60" fill="none" xmlns="http://www.w3.org/2000/svg">
<path d="M58.4954 42.7301C58.4954 42.7301 51.0477 62.8144 25.407 58.1388C25.0036 58.0637 24.6166 57.9234 24.2247 57.805C24.1331 57.7781 24.0405 57.7488 23.9489 57.7226C23.5639 57.6028 23.1828 57.48 22.8041 57.3479C22.7607 57.3328 22.7193 57.3186 22.6754 57.303C22.3304 57.1818 21.9873 57.053 21.6486 56.9229C21.5599 56.8883 21.4717 56.8547 21.3834 56.8186C21.0185 56.6744 20.6554 56.5238 20.2963 56.3664C20.2301 56.3372 20.1662 56.3079 20.0989 56.2782C19.7845 56.1384 19.4741 55.9936 19.1662 55.8464C19.0863 55.8059 19.0059 55.7684 18.9254 55.7304C18.8816 55.7085 18.8344 55.6866 18.7895 55.6642C18.5907 55.5648 18.3967 55.4616 18.2008 55.359C18.0498 55.2811 17.8963 55.2052 17.7461 55.1246C17.4689 54.9736 17.1955 54.8201 16.9235 54.6632C16.8226 54.6056 16.7208 54.5501 16.6208 54.4921C16.2514 54.2748 15.8859 54.0491 15.5258 53.8209C15.424 53.7557 15.3232 53.6865 15.2227 53.6191C14.9879 53.4671 14.7529 53.315 14.5229 53.1562C14.4985 53.1396 14.4752 53.1221 14.4513 53.105C14.3621 53.0446 14.2774 52.9827 14.1887 52.9184C13.946 52.7497 13.7058 52.5772 13.468 52.4018C13.353 52.3151 13.2384 52.2279 13.1244 52.1406C12.909 51.9763 12.6947 51.8081 12.4821 51.6385C12.3764 51.5538 12.2692 51.47 12.1635 51.3843C11.9042 51.1707 11.6458 50.9534 11.3929 50.7341C11.3451 50.6923 11.2945 50.6512 11.2458 50.6074C11.2408 50.6054 11.2374 50.6016 11.232 50.5971C10.9451 50.3456 10.6633 50.0878 10.3841 49.8247C10.2998 49.7477 10.2159 49.6653 10.1312 49.5845C9.92259 49.3841 9.71599 49.1823 9.51279 48.9777C9.42841 48.8948 9.34509 48.8111 9.26423 48.7271C9.00162 48.4571 8.74228 48.1868 8.48892 47.9103C8.47966 47.8978 8.4704 47.8904 8.45927 47.8782C8.45482 47.8734 8.44849 47.867 8.44415 47.8616C8.18494 47.576 7.93052 47.2841 7.6815 46.9912C7.61177 46.9089 7.54169 46.8246 7.4729 46.7413C7.28728 46.5176 7.10447 46.2944 6.92517 46.0683C6.85064 45.9742 6.77611 45.8793 6.70251 45.7847C6.5013 45.5249 6.30244 45.2632 6.1099 44.9971C6.0738 44.9474 6.03537 44.8986 6.00068 44.8499C5.9933 44.8417 5.98708 44.8328 5.98216 44.8246C5.75904 44.516 5.54365 44.2017 5.33212 43.887C5.26638 43.7904 5.20451 43.691 5.14111 43.5915C4.98806 43.3587 4.83794 43.1256 4.69275 42.8898C4.61681 42.769 4.54462 42.6477 4.4715 42.5262C4.33943 42.306 4.21029 42.0857 4.08501 41.8635C4.01341 41.7377 3.94275 41.6149 3.87349 41.4858C3.83494 41.4176 3.7931 41.3473 3.7556 41.2758C3.68974 41.1567 3.63033 41.0326 3.56599 40.9112C3.46662 40.7207 3.36572 40.5292 3.26974 40.3352C-0.779908 32.2383 -1.44073 22.3242 3.8613 14.7036L7.99966 9.45492C3.33056 18.4792 5.42904 29.468 11.2701 37.4346C11.4811 37.7246 11.697 38.0107 11.9177 38.2966C11.986 38.3829 12.0546 38.4697 12.1229 38.5526C12.3065 38.7865 12.4942 39.0175 12.6838 39.2461C12.7521 39.3265 12.8188 39.4053 12.8885 39.4882C13.142 39.7875 13.4012 40.0847 13.6673 40.3746C13.68 40.3887 13.6922 40.4014 13.7043 40.415C13.9558 40.6895 14.2121 40.9603 14.4729 41.2275C14.5537 41.3093 14.6361 41.3903 14.7185 41.4722C14.9232 41.6811 15.1323 41.884 15.3447 42.0857C15.4251 42.1656 15.506 42.2426 15.5894 42.322C15.8764 42.5891 16.1659 42.8546 16.4607 43.114C16.4914 43.1408 16.5231 43.1655 16.5513 43.1904C16.8242 43.4277 17.1006 43.6588 17.3803 43.8888C17.4778 43.9683 17.5772 44.0476 17.6765 44.1266C17.8963 44.3034 18.1186 44.4756 18.3423 44.6466C18.449 44.7285 18.5586 44.8118 18.6693 44.8936C18.9125 45.0739 19.1581 45.2514 19.4062 45.4268C19.4905 45.4837 19.5724 45.5457 19.6577 45.6032C19.9141 45.7806 20.1753 45.9531 20.4375 46.1217C20.5359 46.1871 20.6334 46.2553 20.7328 46.3187C21.0944 46.5477 21.4599 46.7728 21.8293 46.9902C21.9243 47.0448 22.0194 47.0959 22.1129 47.1486C22.3917 47.3099 22.6709 47.4687 22.9555 47.6208C23.1095 47.7064 23.2679 47.784 23.4238 47.8664C23.6567 47.9863 23.8897 48.1082 24.1255 48.2231C24.2147 48.2669 24.3014 48.308 24.3887 48.3493C24.6894 48.4941 24.991 48.6335 25.2961 48.7718C25.3683 48.8031 25.4383 48.8357 25.511 48.8668C25.8663 49.0223 26.2254 49.1715 26.5875 49.3141C26.6805 49.3512 26.7737 49.3868 26.8672 49.4239C27.1966 49.5516 27.5285 49.6754 27.8642 49.7938C27.9164 49.8123 27.9685 49.8313 28.0192 49.8498C28.3935 49.9786 28.7701 50.1013 29.1498 50.2173C29.2467 50.2475 29.3437 50.2768 29.4431 50.306C29.8319 50.421 30.2184 50.5453 30.6171 50.6355C41.1374 53.0298 52.2402 50.8796 58.4954 42.7301ZM21.3797 29.8545C21.9547 30.6776 22.5911 31.6575 23.3538 32.319C23.6297 32.6235 23.9191 32.9202 24.214 33.2121C24.288 33.288 24.3645 33.3612 24.4411 33.4357C24.7267 33.7136 25.019 33.9869 25.3193 34.2525C25.3319 34.2618 25.3432 34.2745 25.3554 34.2833C25.3588 34.2872 25.3617 34.2881 25.3642 34.292C25.6976 34.5834 26.0416 34.8647 26.3905 35.1409C26.4681 35.2004 26.5449 35.2623 26.6235 35.3228C26.9738 35.5912 27.3311 35.8554 27.6976 36.1068C27.7088 36.1145 27.7175 36.1225 27.7288 36.1302C27.89 36.2422 28.0548 36.3465 28.218 36.4537C28.297 36.5045 28.3715 36.559 28.4504 36.6068C28.7126 36.775 28.9773 36.9382 29.2467 37.0951C29.2848 37.1186 29.3218 37.138 29.3593 37.1599C29.5908 37.2935 29.8271 37.4256 30.063 37.5532C30.1448 37.599 30.2287 37.6399 30.3125 37.6837C30.4753 37.7686 30.639 37.8558 30.8047 37.9382C30.8295 37.9499 30.8554 37.9615 30.8793 37.9718C31.2171 38.138 31.5576 38.2987 31.9061 38.4498C31.9802 38.483 32.0572 38.5121 32.1328 38.5434C32.4111 38.6613 32.6918 38.7769 32.974 38.885C33.0937 38.9304 33.2152 38.9737 33.3341 39.0171C33.5908 39.1126 33.8477 39.1995 34.1069 39.2862C34.2245 39.3236 34.3394 39.3621 34.4569 39.3982C34.8253 39.5122 35.1897 39.6574 35.5742 39.7208C55.3712 43.001 59.9414 27.7586 59.9414 27.7586C55.8211 33.6921 47.8426 36.5231 39.3285 34.3135C38.9508 34.2141 38.5781 34.1054 38.2081 33.9889C38.094 33.9547 37.9829 33.9178 37.8703 33.8802C37.6072 33.7949 37.3454 33.7043 37.0858 33.6097C36.9674 33.5664 36.8485 33.523 36.7319 33.4781C36.4478 33.3689 36.1666 33.2559 35.8884 33.138C35.8119 33.1049 35.7354 33.0756 35.6608 33.0415C35.3115 32.8893 34.9674 32.7294 34.6282 32.5617C34.4532 32.4763 34.2821 32.3861 34.1096 32.2976C34.0101 32.2464 33.9103 32.195 33.8109 32.1438C33.5906 32.0242 33.3713 31.9001 33.1554 31.7742C33.1042 31.7447 33.0506 31.7167 32.9985 31.6857C32.7309 31.5288 32.4668 31.3672 32.2051 31.2013C32.1246 31.15 32.0467 31.0941 31.9663 31.0412C31.7932 30.9294 31.6213 30.8161 31.4516 30.7011C31.0871 30.4496 30.7323 30.1856 30.3819 29.9186C30.301 29.8549 30.2206 29.7928 30.1406 29.7292C26.4145 26.7865 23.4609 22.7655 22.0554 18.2061C20.5841 13.4774 20.9014 8.16937 23.4515 3.86168L20.3185 8.2841C16.4847 13.8019 16.6929 21.188 19.6835 27.0236C20.1858 28.002 20.7495 28.9507 21.3797 29.8545ZM42.2461 23.028C42.4093 23.089 42.5721 23.143 42.7372 23.1989C42.8094 23.2211 42.8815 23.2459 42.9541 23.2673C43.1871 23.3407 43.4185 23.4258 43.6594 23.471C54.5911 25.5831 57.5554 17.8614 58.3449 16.725C55.7475 20.4645 51.3834 21.3621 46.0272 20.0626C45.6048 19.9594 45.1399 19.8066 44.7314 19.6623C44.2085 19.4759 43.6944 19.2634 43.1934 19.0229C42.2417 18.566 41.3362 18.0117 40.4952 17.377C35.7033 13.7408 32.7267 6.80426 35.8534 1.15535L34.1613 3.4875C31.9011 6.81398 31.6794 10.9451 33.2471 14.6193C34.9011 18.5186 38.2904 21.578 42.2461 23.028Z" fill="black"/>
</svg>
