<svg width="60" height="60" viewBox="0 0 60 60" fill="none" xmlns="http://www.w3.org/2000/svg">
<path d="M51.375 10.3125H34.125L30.1875 18.1875H8.0625V49.6875H55.3125V10.3125H51.375ZM51.375 45.375H12.375V22.125H51.375V45.375ZM51.375 18.1875H36L37.875 14.25H51.1875V18.1875H51.375ZM48.1875 25.6875H0.9375L8.0625 49.6875H55.3125L48.1875 25.6875Z" fill="black"/>
<path d="M50.2031 58.125L49.1475 57.7744C49.1475 57.7744 49.2825 52.4287 47.355 52.0556C46.0837 50.5819 47.5425 -10.8619 52.1681 51.8456C51.2901 52.2905 50.6182 53.0578 50.2931 53.9869C50.1188 55.3593 50.0887 56.7463 50.2031 58.125Z" fill="#2C2C2C"/>
<path d="M50.7732 52.9631C53.5845 50.8459 55.7373 47.9744 56.9813 44.6822C58.2253 41.3899 58.5094 37.8123 57.8007 34.365C55.7382 25.245 50.8425 22.2469 50.3157 21.1031C49.8603 20.3905 49.4718 19.6373 49.155 18.8531L49.545 44.2631C49.545 44.2631 48.7369 52.0275 50.7732 52.9631Z" fill="#2C2C2C"/>
<path d="M48.6094 53.3006C48.6094 53.3006 40.0012 47.4375 40.5 37.0669C40.5465 33.9403 41.2634 30.8602 42.6022 28.0344C43.941 25.2087 45.8706 22.7031 48.2606 20.6869C48.5393 20.4489 48.7607 20.1512 48.9084 19.8159C49.0561 19.4805 49.1263 19.1162 49.1137 18.75C49.65 19.9031 49.5619 35.9662 49.6181 37.845C49.8375 45.1537 49.2131 51.9206 48.6094 53.3006Z" fill="#2C2C2C"/>
</svg>
