<svg width="60" height="60" viewBox="0 0 60 60" fill="none" xmlns="http://www.w3.org/2000/svg">
<path d="M46.9985 26.25C47.4338 26.7322 47.537 27.5603 47.3094 28.7332C47.0716 29.9549 46.6139 30.8264 45.9356 31.3488C45.2568 31.8713 44.2245 32.1325 42.8381 32.1325H40.7464L42.0305 25.5266H44.3863C45.6929 25.5266 46.5633 25.7679 46.9985 26.25ZM17.5493 25.5266H15.1935L13.9093 32.1325H16.0009C17.3869 32.1325 18.4195 31.8713 19.0984 31.3488C19.7768 30.8264 20.2344 29.9548 20.4722 28.7332C20.6998 27.5602 20.5964 26.7322 20.1613 26.25C19.7262 25.7679 18.8558 25.5266 17.5493 25.5266ZM59.9414 30C59.9414 38.6987 46.536 45.7504 30 45.7504C13.464 45.7504 0.0585938 38.6987 0.0585938 30C0.0585938 21.3014 13.464 14.2496 30 14.2496C46.536 14.2496 59.9414 21.3014 59.9414 30ZM23.2666 31.0882C23.6229 30.4498 23.8764 29.7451 24.0264 28.9745C24.3899 27.1034 24.1155 25.646 23.2032 24.6019C22.2914 23.5577 20.8402 23.0359 18.8514 23.0359H12.2393L9.17168 38.8196H12.6102L13.4256 34.6238H16.371C17.6702 34.6238 18.7393 34.4873 19.5786 34.2139C20.4178 33.941 21.1805 33.4835 21.8671 32.8406C22.443 32.3109 22.9093 31.7271 23.2666 31.0882ZM35.3688 34.6238L36.7963 27.2782C37.0868 25.7844 36.8688 24.7035 36.1433 24.0363C35.4172 23.3698 34.0985 23.0359 32.1861 23.0359H29.1471L29.9629 18.8394H26.5515L23.4833 34.6236H26.8946L28.652 25.5809H31.3786C32.2514 25.5809 32.822 25.7252 33.09 26.0142C33.358 26.3033 33.415 26.8452 33.2605 27.6395L31.9034 34.6236H35.3688V34.6238ZM50.0404 24.602C49.1286 23.5579 47.6774 23.036 45.6886 23.036H39.0764L36.0087 38.8198H39.4473L40.2626 34.6239H43.2081C44.5072 34.6239 45.5764 34.4875 46.4156 34.2141C47.2548 33.9411 48.0175 33.4836 48.7041 32.8407C49.2806 32.3109 49.7466 31.7272 50.1036 31.0883C50.4604 30.4499 50.7132 29.7452 50.8634 28.9746C51.227 27.1034 50.9527 25.646 50.0404 24.602Z" fill="black"/>
</svg>
