<svg width="60" height="60" viewBox="0 0 60 60" fill="none" xmlns="http://www.w3.org/2000/svg">
<path fill-rule="evenodd" clip-rule="evenodd" d="M30 12C22.5333 12 17.8667 16 16 24C18.8 20 22.0667 18.5 25.8 19.5C27.9301 20.0705 29.4526 21.7262 31.1377 23.559C33.883 26.5445 37.0602 30 44 30C51.4668 30 56.1332 26 58 18C55.2 22 51.9332 23.5 48.2 22.5C46.07 21.9294 44.5476 20.2738 42.8624 18.441C40.1172 15.4554 36.9398 12 30 12ZM16 30C8.53332 30 3.86667 33.9999 2 42C4.8 37.9999 8.06668 36.4999 11.8 37.4999C13.9301 38.0705 15.4526 39.7262 17.1377 41.5588C19.883 44.5444 23.0602 48 30 48C37.4667 48 42.1332 44 44 35.9999C41.2 39.9999 37.9333 41.5 34.2 40.5C32.0699 39.9294 30.5474 38.2737 28.8623 36.4409C26.117 33.4554 22.9398 30 16 30Z" stroke="black" stroke-width="4" stroke-linejoin="round"/>
</svg>
