<svg width="382" height="382" viewBox="0 0 382 382" fill="none" xmlns="http://www.w3.org/2000/svg">
<path d="M190.936 381C295.835 381 380.873 295.71 380.873 190.5C380.873 85.2898 295.835 0 190.936 0C86.0374 0 1 85.2898 1 190.5C1 295.71 86.0374 381 190.936 381Z" fill="#5975BB"/>
<path d="M366.866 381H380.873" stroke="#1E247E" stroke-width="0.703125" stroke-miterlimit="10" stroke-linecap="round" stroke-linejoin="round"/>
<path d="M33.9482 381H352.418" stroke="#1E247E" stroke-width="0.703125" stroke-miterlimit="10" stroke-linecap="round" stroke-linejoin="round"/>
<path d="M1 381H19.4122" stroke="#1E247E" stroke-width="0.703125" stroke-miterlimit="10" stroke-linecap="round" stroke-linejoin="round"/>
<path d="M296.74 184.58C313.769 184.58 327.574 170.734 327.574 153.655C327.574 136.575 313.769 122.729 296.74 122.729C279.711 122.729 265.907 136.575 265.907 153.655C265.907 170.734 279.711 184.58 296.74 184.58Z" fill="#E03554"/>
<path d="M324.403 222.751V357.585C324.403 370.044 314.36 380.117 301.938 380.117H79.9347C67.513 380.117 57.47 370.044 57.47 357.585V222.751C57.47 220.365 57.9105 217.98 58.8796 215.771C59.8486 213.385 61.2582 211.176 63.1963 209.409L171.115 106.118C182.215 95.5153 199.658 95.5153 210.846 106.118L318.765 209.409C320.703 211.264 322.112 213.385 323.081 215.771C323.874 217.98 324.403 220.365 324.403 222.751Z" fill="#A94F7E" stroke="#1E247E" stroke-width="0.703125" stroke-miterlimit="10" stroke-linejoin="round"/>
<path d="M322.993 215.859L284.583 241.836L223.356 283.188C203.799 296.441 178.162 296.441 158.517 283.188L97.2897 241.836L58.8795 215.859" stroke="#1E247E" stroke-width="0.703125" stroke-miterlimit="10" stroke-linejoin="round"/>
<path d="M147.593 333.817L154.641 339.295" stroke="#1E247E" stroke-width="0.292969" stroke-miterlimit="10" stroke-linecap="round"/>
<path d="M147.593 327.013L161.776 337.881" stroke="#1E247E" stroke-width="0.292969" stroke-miterlimit="10" stroke-linecap="round"/>
<path d="M157.812 327.985L161.776 330.99" stroke="#1E247E" stroke-width="0.292969" stroke-miterlimit="10" stroke-linecap="round"/>
<path d="M311.805 272.585V292.465" stroke="#1E247E" stroke-width="0.351562" stroke-miterlimit="10" stroke-linecap="round"/>
<path d="M311.805 256.239V261.452" stroke="#1E247E" stroke-width="0.351562" stroke-miterlimit="10" stroke-linecap="round"/>
<path d="M315.505 360.413C314.712 364.389 311.893 367.658 308.193 369.072" stroke="#1E247E" stroke-width="0.351562" stroke-miterlimit="10" stroke-linecap="round" stroke-linejoin="round"/>
<g opacity="0.7">
<path d="M120.107 345.922H86.4539C83.811 345.922 81.6967 343.801 81.6967 341.151V324.981C81.6967 322.33 83.811 320.21 86.4539 320.21H120.107C122.75 320.21 124.864 322.33 124.864 324.981V341.151C124.864 343.801 122.75 345.922 120.107 345.922Z" fill="white"/>
<path d="M119.754 309.518H86.1015C83.4586 309.518 81.3442 307.398 81.3442 304.747V288.578C81.3442 285.927 83.4586 283.806 86.1015 283.806H119.754C122.397 283.806 124.512 285.927 124.512 288.578V304.747C124.424 307.398 122.309 309.518 119.754 309.518Z" fill="white"/>
</g>
<path d="M284.583 203.577V241.836L213.665 289.726C199.922 299.004 182.039 299.004 168.296 289.726L97.3779 241.836V203.577C97.3779 201.898 98.6993 200.573 100.373 200.573H281.588C283.174 200.485 284.583 201.898 284.583 203.577Z" fill="white" stroke="#1E247E" stroke-width="0.703125" stroke-miterlimit="10" stroke-linejoin="round"/>
<path d="M144.157 256.238H237.716" stroke="#1E247E" stroke-width="0.703125" stroke-miterlimit="10" stroke-linecap="round" stroke-linejoin="round"/>
<path d="M144.157 243.25H237.716" stroke="#1E247E" stroke-width="0.703125" stroke-miterlimit="10" stroke-linecap="round" stroke-linejoin="round"/>
<path d="M144.157 230.173H237.716" stroke="#1E247E" stroke-width="0.703125" stroke-miterlimit="10" stroke-linecap="round" stroke-linejoin="round"/>
<path d="M183.36 116.456C187.589 112.392 194.284 112.392 198.513 116.456" stroke="#1E247E" stroke-width="0.351562" stroke-miterlimit="10" stroke-linecap="round" stroke-linejoin="round"/>
<path d="M284.583 176.805C301.612 176.805 315.417 162.959 315.417 145.879C315.417 128.8 301.612 114.954 284.583 114.954C267.554 114.954 253.749 128.8 253.749 145.879C253.749 162.959 267.554 176.805 284.583 176.805Z" fill="#E63250" stroke="#1E247E" stroke-width="0.703125" stroke-miterlimit="10" stroke-linecap="round" stroke-linejoin="round"/>
<path d="M341.758 114.159L334.358 118.665" stroke="white" stroke-width="0.820312" stroke-miterlimit="10" stroke-linecap="round"/>
<path d="M346.515 126.529L338.851 126.705" stroke="white" stroke-width="0.820312" stroke-miterlimit="10" stroke-linecap="round"/>
<path d="M328.455 111.508L331.803 103.997" stroke="white" stroke-width="0.820312" stroke-miterlimit="10" stroke-linecap="round"/>
<path d="M257.89 108.327C274.919 108.327 288.724 94.4812 288.724 77.4016C288.724 60.3221 274.919 46.4763 257.89 46.4763C240.861 46.4763 227.056 60.3221 227.056 77.4016C227.056 94.4812 240.861 108.327 257.89 108.327Z" fill="#E03554"/>
<path d="M245.292 98.7843C262.321 98.7843 276.126 84.9385 276.126 67.8589C276.126 50.7793 262.321 36.9336 245.292 36.9336C228.263 36.9336 214.458 50.7793 214.458 67.8589C214.458 84.9385 228.263 98.7843 245.292 98.7843Z" fill="#85609A" stroke="#1E247E" stroke-width="0.703125" stroke-miterlimit="10" stroke-linecap="round" stroke-linejoin="round"/>
<path d="M237.363 14.4907L235.866 22.0012" stroke="white" stroke-width="0.820312" stroke-miterlimit="10" stroke-linecap="round"/>
<path d="M224.237 16.6997L227.144 24.917" stroke="white" stroke-width="0.820312" stroke-miterlimit="10" stroke-linecap="round"/>
<path d="M219.039 29.2465L212.344 24.3868" stroke="white" stroke-width="0.820312" stroke-miterlimit="10" stroke-linecap="round"/>
<path d="M174.991 88.4466C192.02 88.4466 205.825 74.6009 205.825 57.5213C205.825 40.4417 192.02 26.5959 174.991 26.5959C157.962 26.5959 144.157 40.4417 144.157 57.5213C144.157 74.6009 157.962 88.4466 174.991 88.4466Z" fill="#E03554"/>
<path d="M160.103 82.0847C177.132 82.0847 190.936 68.2389 190.936 51.1593C190.936 34.0798 177.132 20.234 160.103 20.234C143.073 20.234 129.269 34.0798 129.269 51.1593C129.269 68.2389 143.073 82.0847 160.103 82.0847Z" fill="#298CE0" stroke="#1E247E" stroke-width="0.703125" stroke-miterlimit="10" stroke-linecap="round" stroke-linejoin="round"/>
<path d="M117.464 74.6626L112.442 81.2011" stroke="white" stroke-width="0.820312" stroke-miterlimit="10" stroke-linecap="round"/>
<path d="M105.13 69.096L113.323 66.3569" stroke="white" stroke-width="0.820312" stroke-miterlimit="10" stroke-linecap="round"/>
<path d="M103.28 55.8423L110.768 57.5211" stroke="white" stroke-width="0.820312" stroke-miterlimit="10" stroke-linecap="round"/>
</svg>
