<svg width="72" height="36" viewBox="0 0 72 36" fill="none" xmlns="http://www.w3.org/2000/svg">
<path d="M0.227273 35V0.0909081H4.45455V15.6364H23.0682V0.0909081H27.2955V35H23.0682V19.3864H4.45455V35H0.227273ZM45.0994 35.5455C42.9176 35.5455 40.9915 34.9943 39.321 33.892C37.6506 32.7784 36.3438 31.2102 35.4006 29.1875C34.4574 27.1534 33.9858 24.75 33.9858 21.9773C33.9858 19.2273 34.4574 16.8409 35.4006 14.8182C36.3438 12.7955 37.6563 11.233 39.3381 10.1307C41.0199 9.02841 42.9631 8.47727 45.1676 8.47727C46.8722 8.47727 48.2188 8.76136 49.2074 9.32955C50.2074 9.88636 50.9688 10.5227 51.4915 11.2386C52.0256 11.9432 52.4403 12.5227 52.7358 12.9773H53.0767V0.0909081H57.0994V35H53.2131V30.9773H52.7358C52.4403 31.4545 52.0199 32.0568 51.4744 32.7841C50.929 33.5 50.1506 34.142 49.1392 34.7102C48.1278 35.267 46.7813 35.5455 45.0994 35.5455ZM45.6449 31.9318C47.2585 31.9318 48.6222 31.5114 49.7358 30.6705C50.8494 29.8182 51.696 28.642 52.2756 27.142C52.8551 25.6307 53.1449 23.8864 53.1449 21.9091C53.1449 19.9545 52.8608 18.2443 52.2926 16.7784C51.7244 15.3011 50.8835 14.1534 49.7699 13.3352C48.6563 12.5057 47.2813 12.0909 45.6449 12.0909C43.9403 12.0909 42.5199 12.5284 41.3835 13.4034C40.2585 14.267 39.4119 15.4432 38.8438 16.9318C38.2869 18.4091 38.0085 20.0682 38.0085 21.9091C38.0085 23.7727 38.2926 25.4659 38.8608 26.9886C39.4403 28.5 40.2926 29.7045 41.4176 30.6023C42.554 31.4886 43.9631 31.9318 45.6449 31.9318ZM67.9574 35.2727C67.1165 35.2727 66.3949 34.9716 65.7926 34.3693C65.1903 33.767 64.8892 33.0455 64.8892 32.2045C64.8892 31.3636 65.1903 30.642 65.7926 30.0398C66.3949 29.4375 67.1165 29.1364 67.9574 29.1364C68.7983 29.1364 69.5199 29.4375 70.1222 30.0398C70.7244 30.642 71.0256 31.3636 71.0256 32.2045C71.0256 32.7614 70.8835 33.2727 70.5994 33.7386C70.3267 34.2045 69.9574 34.5795 69.4915 34.8636C69.0369 35.1364 68.5256 35.2727 67.9574 35.2727Z" fill="url(#paint0_linear_3_11)"/>
<defs>
<linearGradient id="paint0_linear_3_11" x1="65.7662" y1="-1.38113e-06" x2="1.41505" y2="37.2642" gradientUnits="userSpaceOnUse">
<stop stop-color="#009FFF"/>
<stop offset="1" stop-color="#EC2F4B"/>
</linearGradient>
</defs>
</svg>
