<svg width="60" height="60" viewBox="0 0 60 60" fill="none" xmlns="http://www.w3.org/2000/svg">
<path fill-rule="evenodd" clip-rule="evenodd" d="M12.4622 5C9.03865 5 6.50542 7.99645 6.61882 11.2461C6.72763 14.3681 6.58628 18.4115 5.5683 21.709C4.5473 25.016 2.8205 27.111 0 27.38V30.4165C2.8205 30.6855 4.5473 32.7805 5.5683 36.0877C6.58628 39.385 6.72763 43.4285 6.61882 46.5505C6.50542 49.7997 9.03865 52.7965 12.4627 52.7965H47.5422C50.966 52.7965 53.4987 49.8002 53.3852 46.5505C53.2765 43.4285 53.4177 39.385 54.4357 36.0877C55.4572 32.7805 57.1795 30.6855 60 30.4165V27.38C57.1795 27.111 55.4572 25.016 54.4357 21.709C53.4177 18.412 53.2765 14.3681 53.3852 11.2461C53.4987 7.99695 50.966 5 47.5422 5H12.4622ZM40.678 34.4217C40.678 38.8965 37.3403 41.6103 31.8015 41.6103H22.3729C22.1032 41.6103 21.8445 41.503 21.6538 41.3123C21.4631 41.1215 21.3559 40.863 21.3559 40.5933V17.2034C21.3559 16.9337 21.4631 16.675 21.6538 16.4843C21.8445 16.2936 22.1032 16.1864 22.3729 16.1864H31.7477C36.366 16.1864 39.397 18.6881 39.397 22.5291C39.397 25.225 37.3582 27.6388 34.7603 28.0612V28.2022C38.2968 28.5903 40.678 31.039 40.678 34.4217ZM30.7735 19.4102H25.3973V27.0037H29.9253C33.4255 27.0037 35.3558 25.5943 35.3558 23.0748C35.3558 20.7139 33.696 19.4102 30.7735 19.4102ZM25.3973 30.017V38.3855H30.9713C34.6155 38.3855 36.546 36.923 36.546 34.1747C36.546 31.426 34.5615 30.0165 30.7367 30.0165L25.3973 30.017Z" fill="black"/>
</svg>
