<svg width="60" height="60" viewBox="0 0 60 60" fill="none" xmlns="http://www.w3.org/2000/svg">
<path d="M20 12.5C18.6193 12.5 17.5 13.6193 17.5 15C17.5 16.3807 18.6193 17.5 20 17.5H30.586L21.2597 22.8294C20.2754 23.3918 19.7928 24.546 20.0837 25.6417C20.3747 26.7372 21.3664 27.5 22.5 27.5H34.5C34.7763 27.5 35 27.7237 35 28V33.7572C35 33.89 34.9472 34.0172 34.8535 34.111L30.3535 38.611C30.1583 38.8062 29.8417 38.8062 29.6465 38.611L24.2678 33.2323C23.2915 32.256 21.7086 32.256 20.7323 33.2323C19.7559 34.2085 19.7559 35.7915 20.7323 36.7677L28.2323 44.2677C29.2085 45.244 30.7915 45.244 31.7677 44.2677L39.2677 36.7677C39.7365 36.299 40 35.663 40 35V25C40 23.6193 38.8808 22.5 37.5 22.5H31.914L41.2402 17.1706C42.2245 16.6082 42.7072 15.4539 42.4162 14.3583C42.1252 13.2627 41.1335 12.5 40 12.5H20Z" fill="#0F0F0F"/>
<path fill-rule="evenodd" clip-rule="evenodd" d="M10.7651 2.5C6.20098 2.5 2.69501 6.5424 3.34046 11.0606L7.26301 38.5185C7.51673 40.2945 8.39868 41.9207 9.74886 43.1022L25.0613 56.5005C27.889 58.9748 32.111 58.9748 34.9388 56.5005L50.2513 43.1022C51.6013 41.9207 52.4833 40.2945 52.737 38.5185L56.6595 11.0606C57.305 6.5424 53.799 2.5 49.235 2.5H10.7651ZM8.29021 10.3535C8.07506 8.84747 9.24371 7.5 10.7651 7.5H49.235C50.7563 7.5 51.925 8.84747 51.7098 10.3535L47.7873 37.8112C47.7028 38.4033 47.4088 38.9455 46.9588 39.3392L31.6463 52.7375C30.7038 53.5622 29.2963 53.5622 28.3538 52.7375L13.0414 39.3392C12.5913 38.9455 12.2973 38.4033 12.2128 37.8112L8.29021 10.3535Z" fill="#0F0F0F"/>
</svg>
