<svg width="60" height="60" viewBox="0 0 60 60" fill="none" xmlns="http://www.w3.org/2000/svg">
<path d="M18.1871 8.89482C17.2461 9.43812 16.2558 10.9364 16.1409 14.2044C16.0863 15.7568 14.7836 16.971 13.2313 16.9164C11.679 16.8618 10.4648 15.5591 10.5193 14.0068C10.6602 10.0002 11.9272 6.01374 15.3746 4.02342C18.8317 2.02746 22.9306 2.93385 26.4798 4.82727C27.8503 5.55841 28.3686 7.26211 27.6374 8.63255C26.9063 10.003 25.2026 10.5213 23.8321 9.79021C20.9317 8.24289 19.1309 8.34987 18.1871 8.89482ZM33.2677 13.7732C34.4639 12.7822 36.2368 12.9485 37.2278 14.1446C39.3067 16.6539 41.301 19.5152 43.1111 22.6507C47.0122 29.4072 49.4175 36.3294 50.0659 42.1358C50.3895 45.0341 50.2905 47.7923 49.6136 50.1578C48.9315 52.5413 47.6029 54.6986 45.3746 55.9849C42.6787 57.5415 39.5659 57.3206 36.7168 56.2834C33.8575 55.2424 30.9148 53.271 28.1095 50.7105C26.9622 49.6631 26.8812 47.8841 27.9283 46.737C28.9755 45.5899 30.7545 45.5085 31.9017 46.5559C34.3734 48.8119 36.6963 50.2894 38.6411 50.9978C40.5964 51.7095 41.8264 51.5385 42.5621 51.1136C43.1786 50.7578 43.7989 50.0325 44.2057 48.6101C44.6179 47.1701 44.748 45.1984 44.4757 42.7598C43.932 37.8919 41.8466 31.7103 38.2399 25.4632C36.5809 22.5899 34.7655 19.9896 32.8962 17.7332C31.9053 16.5371 32.0716 14.7641 33.2677 13.7732Z" fill="black"/>
<path d="M54.375 30.7709C54.375 29.6843 53.5725 28.0776 50.7998 26.344C49.4827 25.5206 49.0826 23.7854 49.9061 22.4683C50.7296 21.1512 52.4647 20.751 53.7817 21.5745C57.1811 23.6997 60 26.7903 60 30.7709C60 34.7628 57.1658 37.8593 53.7514 39.9863C52.4329 40.8075 50.6981 40.4048 49.8769 39.0863C49.0556 37.7678 49.4587 36.0333 50.7769 35.2119C53.5672 33.4738 54.375 31.8608 54.375 30.7709ZM42.6098 41.3918C42.87 42.9233 41.8395 44.3756 40.308 44.6359C37.0957 45.1815 33.6205 45.4778 30 45.4778C22.1983 45.4778 15.0007 44.1 9.64822 41.7581C6.9762 40.5893 4.63721 39.1245 2.92698 37.3556C1.20366 35.5731 0 33.3437 0 30.7709C0 27.6581 1.74781 25.0725 4.07055 23.1239C6.4017 21.1682 9.58016 19.6053 13.2005 18.4562C14.681 17.9862 16.2621 18.8055 16.7321 20.286C17.202 21.7665 16.3828 23.3476 14.9023 23.8176C11.7125 24.83 9.2715 26.1029 7.68578 27.4332C6.09158 28.7706 5.625 29.9212 5.625 30.7709C5.625 31.4826 5.94285 32.3824 6.97106 33.4459C8.01236 34.523 9.6549 35.6214 11.9028 36.6049C16.3904 38.568 22.7865 39.8528 30 39.8528C33.3178 39.8528 36.4774 39.5809 39.366 39.09C40.8975 38.8301 42.3499 39.8606 42.6098 41.3918Z" fill="black"/>
<path d="M18.2697 51.1136C19.2107 51.657 21.0033 51.7654 23.891 50.2309C25.2627 49.5019 26.9655 50.0231 27.6944 51.3945C28.4234 52.7663 27.9023 54.4691 26.5306 55.1981C22.9904 57.0791 18.9045 57.9754 15.4572 55.9849C12.0001 53.9891 10.7355 49.986 10.6007 45.9656C10.5487 44.4131 11.765 43.1126 13.3174 43.0605C14.8698 43.0084 16.1705 44.2245 16.2226 45.777C16.3328 49.0628 17.3258 50.5688 18.2697 51.1136ZM14.9541 35.6142C13.4979 35.0738 12.7554 33.4552 13.2958 31.9989C14.4294 28.944 15.9102 25.7861 17.7205 22.6507C21.6214 15.8942 26.4135 10.3499 31.1177 6.88535C33.4661 5.15577 35.904 3.86247 38.2912 3.26589C40.6965 2.66472 43.2292 2.737 45.4571 4.02342C48.153 5.57982 49.5183 8.38628 50.0445 11.3721C50.5725 14.3688 50.337 17.9028 49.5217 21.6128C49.1883 23.1299 47.6883 24.0896 46.1715 23.7563C44.6542 23.423 43.6946 21.923 44.028 20.4058C44.7457 17.1372 44.8638 14.3868 44.505 12.3483C44.1438 10.299 43.3803 9.31966 42.6446 8.89482C42.0285 8.53895 41.0902 8.36435 39.6551 8.72304C38.2016 9.0863 36.429 9.95956 34.4534 11.4146C30.5094 14.3192 26.1987 19.2161 22.5919 25.4632C20.933 28.3365 19.5888 31.2088 18.5694 33.9559C18.029 35.4121 16.4104 36.1546 14.9541 35.6142Z" fill="black"/>
<path d="M35.4722 30.2482C35.4722 33.0635 33.1898 35.3459 30.3745 35.3459C27.5591 35.3459 25.2769 33.0635 25.2769 30.2482C25.2769 27.4328 27.5591 25.1505 30.3745 25.1505C33.1898 25.1505 35.4722 27.4328 35.4722 30.2482Z" fill="black"/>
</svg>
