<svg width="60" height="60" viewBox="0 0 60 60" fill="none" xmlns="http://www.w3.org/2000/svg">
<g clip-path="url(#clip0_69_23)">
<path d="M42.096 41.388C44.2392 41.1744 45.9 39.3792 45.9 37.1976C45.9 37.1112 45.8976 37.0248 45.8928 36.9384V36.9504C45.78 34.6392 43.8912 32.808 41.5704 32.784H41.4144C39.0912 32.8704 37.2408 34.7736 37.2408 37.1088C37.2408 37.1616 37.2408 37.2144 37.2432 37.2696V37.2624C37.3056 38.3976 37.7712 39.4152 38.496 40.1832L38.4936 40.1808C35.6448 45.4944 31.2912 49.6848 26.004 52.2552L25.8384 52.3272C22.9776 53.9112 19.5648 54.8424 15.9336 54.8424C15.0144 54.8424 14.1072 54.7824 13.2216 54.6672L13.3272 54.6792C10.0608 54.3648 7.24797 52.6536 5.46237 50.1576L5.44077 50.124C4.15197 48.312 3.38157 46.056 3.38157 43.6176C3.38157 41.6088 3.90477 39.7224 4.82397 38.0856L4.79517 38.1432C6.10797 35.6568 7.89837 33.588 10.0608 31.9944L10.1112 31.9608C9.70077 30.8736 9.33357 29.5632 9.07437 28.2168L9.04797 28.0584C-2.19123 36.096 -1.05123 47.0904 2.36157 52.2864C5.34477 56.0928 9.94317 58.5168 15.108 58.5168C15.3432 58.5168 15.576 58.512 15.8088 58.5024H15.7752C15.8592 58.5048 15.96 58.5048 16.0608 58.5048C17.6136 58.5048 19.1232 58.3248 20.5728 57.9864L20.4384 58.0128C30.0576 56.2512 37.9344 50.052 41.976 41.6592L42.0528 41.4816L42.096 41.388Z" fill="black"/>
<path d="M55.632 31.9176C49.8648 25.3416 41.448 21.2136 32.064 21.2136C31.7784 21.2136 31.4904 21.2184 31.2072 21.2256H31.2504H29.9592C29.28 19.8648 27.8952 18.9456 26.2968 18.9456C26.2488 18.9456 26.2032 18.9456 26.1552 18.948H26.1624H26.0688C23.7504 18.9816 21.8832 20.868 21.8832 23.1912C21.8832 23.2608 21.8856 23.328 21.888 23.3952V23.3856C21.996 25.6968 23.8848 27.5328 26.208 27.5568H26.3976C28.1112 27.4896 29.5584 26.424 30.1824 24.9312L30.192 24.9024H31.596C37.7256 24.9096 43.4136 26.7912 48.1176 30.0096L48.0168 29.9448C51.6912 32.2968 54.528 35.676 56.1576 39.6768L56.208 39.816C56.832 41.1168 57.1944 42.6432 57.1944 44.2536C57.1944 45.9576 56.7888 47.5656 56.0664 48.9864L56.0928 48.9264C54.228 52.7328 50.3832 55.3056 45.9384 55.3056C45.7752 55.3056 45.6144 55.3032 45.4536 55.296H45.4776C42.7488 55.2384 40.1736 54.6384 37.8384 53.5992L37.9632 53.6496C37.0536 54.408 35.5368 55.656 34.4352 56.4168C37.3488 57.8472 40.7664 58.7184 44.3784 58.8024H44.4072C44.5488 58.8072 44.7144 58.8096 44.88 58.8096C51.0048 58.8096 56.3688 55.5576 59.3424 50.688L59.3856 50.6136C60.2064 48.6672 60.6816 46.4064 60.6816 44.0328C60.6816 39.2808 58.7712 34.9752 55.6776 31.8432L55.68 31.8456L55.644 31.9224L55.632 31.9176Z" fill="black"/>
<path d="M16.4256 42.7584C16.5312 45.072 18.4248 46.9128 20.7528 46.9296H20.9064C23.2296 46.8504 25.0848 44.9448 25.0848 42.6096C25.0848 40.2336 23.1672 38.304 20.7936 38.2872H20.6328C20.6088 38.2848 20.58 38.2848 20.5536 38.2848C20.3784 38.2848 20.2104 38.3112 20.052 38.364L20.064 38.3616C17.496 34.1832 15.9768 29.1216 15.9768 23.7048C15.9768 22.8312 16.0152 21.9672 16.0944 21.1152L16.0872 21.2256C16.3056 16.6512 17.9856 12.5064 20.664 9.20881L20.6352 9.24721C23.0136 6.67681 26.364 5.04001 30.1008 4.92001H30.1224C38.3112 4.76641 41.7264 14.9712 41.9904 19.0272L45.7872 20.1624C44.904 7.72801 37.1712 1.20001 29.7768 1.20001C22.26 1.59121 16.0224 6.64801 13.884 13.5144L13.8504 13.6392C12.7992 16.668 12.1896 20.1576 12.1896 23.7888C12.1896 30 13.968 35.796 17.04 40.6944L16.9632 40.5624C16.62 41.0808 16.416 41.7168 16.416 42.4008C16.416 42.528 16.4232 42.6528 16.4376 42.7752L16.4352 42.7608L16.4256 42.7584Z" fill="black"/>
</g>
<defs>
<clipPath id="clip0_69_23">
<rect width="60" height="60" fill="white"/>
</clipPath>
</defs>
</svg>
